<svg xmlns="http://www.w3.org/2000/svg" viewBox="0 0 100 100" width="64" height="64">
  <!-- Escudo base -->
  <path d="M50,5 L90,25 L90,60 C90,75 75,90 50,95 C25,90 10,75 10,60 L10,25 L50,5 Z" fill="#2d3250" />
  
  <!-- Parte interna do escudo -->
  <path d="M50,10 L85,28 L85,58 C85,73 70,85 50,90 C30,85 15,73 15,58 L15,28 L50,10 Z" fill="white" />
  
  <!-- Carro (simplificado) -->
  <path d="M30,55 L70,55 L70,65 L30,65 Z" fill="#2d3250" />
  <rect x="35" y="50" width="30" height="10" fill="#2d3250" />
  <circle cx="35" cy="65" r="5" fill="#2d3250" />
  <circle cx="65" cy="65" r="5" fill="#2d3250" />
  
  <!-- Símbolo de pessoa (parte superior) -->
  <circle cx="50" cy="35" r="8" fill="#2d3250" />
  <path d="M42,35 C42,30 58,30 58,35 C58,45 50,45 50,45 C50,45 42,45 42,35 Z" fill="#2d3250" />
</svg> 